# xmcd
#
# Track frame offsets:
#	150
#	15637
#	25987
#	44512
#	55537
#	66450
#	80850
#	98325
#	119700
#	132337
#	150600
#	167700
#
# Disc length: 2489 seconds
#
# Revision: 0
# Processed by: cddbd v1.5.2PL0 Copyright (c) Steve Scherf et al.
# Submitted via: audiograbber 1.83.01
#
DISCID=9f09b70c
DTITLE=John Hartford - Gum Tree Canoe
DYEAR=2008
DGENRE=country
TTITLE0=I'm Still Here
TTITLE1=Way Down The River Road
TTITLE2=Gum Tree Canoe
TTITLE3=Your Long Journey
TTITLE4=Jug Harris
TTITLE5=Little Piece of My Heart
TTITLE6=Take Me Back to My Mississippi River Home
TTITLE7=Lorena
TTITLE8=Wrong Road Again
TTITLE9=No Expectations
TTITLE10=You Asked Me To
TTITLE11=I Wonder Where You Are Tonight
EXTD=
EXTT0=
EXTT1=
EXTT2=
EXTT3=
EXTT4=
EXTT5=
EXTT6=
EXTT7=
EXTT8=
EXTT9=
EXTT10=
EXTT11=
PLAYORDER=
